<?xml version="1.0"?>
<svg xmlns="http://www.w3.org/2000/svg" xmlns:xlink="http://www.w3.org/1999/xlink" xmlns:svgjs="http://svgjs.com/svgjs" version="1.1" width="512" height="512" x="0" y="0" viewBox="0 0 512.00013 512" style="enable-background:new 0 0 512 512" xml:space="preserve" class=""><g><path xmlns="http://www.w3.org/2000/svg" d="m491.628906 0h-143.082031c-6.65625 0-12.875 3.339844-16.570313 8.902344l-75.976562 114.386718-75.972656-114.386718c-3.695313-5.5625-9.914063-8.902344-16.574219-8.902344h-143.078125c-15.8125 0-26.011719 17.757812-17.007812 31.355469.007812.007812.011718.015625.019531.023437.09375.144532 5.550781 8.359375 155.460937 234.054688-26.121094 25.769531-41.289062 61.402344-41.289062 98.566406 0 76.09375 61.660156 138 137.445312 138 75.789063 0 137.445313-61.90625 137.445313-138 0-36.542969-14.527344-71.640625-40.074219-97.394531 144.542969-217.613281 155.527344-234.148438 156.199219-235.160157.011719-.019531.027343-.039062.039062-.058593 9.089844-13.691407-1.324219-31.386719-16.984375-31.386719zm-434.632812 40h95.800781c11.707031 17.628906 118.609375 178.578125 124.777344 187.863281-7.40625-1.230469-14.949219-1.863281-22.570313-1.863281-22.578125 0-44.34375 5.433594-63.949218 15.824219zm295.613281 324c0 54.039062-43.785156 98-97.605469 98-53.820312 0-97.605468-43.960938-97.605468-98 0-53.628906 43.257812-98 97.605468-98 54.714844 0 97.605469 44.730469 97.605469 98zm-24.765625-132.550781-47.898438-72.113281 79.261719-119.335938h95.796875zm0 0" fill="#0080f6" data-original="#000000" style="" class=""/></g></svg>
