<?xml version="1.0"?>
<svg xmlns="http://www.w3.org/2000/svg" xmlns:xlink="http://www.w3.org/1999/xlink" xmlns:svgjs="http://svgjs.com/svgjs" version="1.1" width="512" height="512" x="0" y="0" viewBox="0 0 512 512" style="enable-background:new 0 0 512 512" xml:space="preserve" class=""><g><path xmlns="http://www.w3.org/2000/svg" d="m361 452c0 33.085938 26.914062 60 60 60s60-26.914062 60-60c0-27.90625-19.152344-51.425781-45-58.101562v-77.898438h-180v-45h90v-45c0-57.898438-47.101562-105-105-105s-105 47.101562-105 105v45h90v45h-181v77.898438c-25.847656 6.675781-45 30.195312-45 58.101562 0 33.085938 26.914062 60 60 60s60-26.914062 60-60c0-27.90625-19.152344-51.425781-45-58.101562v-47.898438h151v47.898438c-25.847656 6.675781-45 30.195312-45 58.101562 0 33.085938 26.914062 60 60 60s60-26.914062 60-60c0-27.90625-19.152344-51.425781-45-58.101562v-47.898438h150v47.898438c-25.847656 6.675781-45 30.195312-45 58.101562zm-195-226c0-36.21875 25.808594-66.523438 60-73.492188v58.492188h30v-58.492188c34.191406 6.96875 60 37.273438 60 73.492188v15h-150zm-76 226c0 16.542969-13.457031 30-30 30s-30-13.457031-30-30 13.457031-30 30-30 30 13.457031 30 30zm181 0c0 16.542969-13.457031 30-30 30s-30-13.457031-30-30 13.457031-30 30-30 30 13.457031 30 30zm180 0c0 16.542969-13.457031 30-30 30s-30-13.457031-30-30 13.457031-30 30-30 30 13.457031 30 30zm0 0" fill="#0080f6" data-original="#000000" style="" class=""/><path xmlns="http://www.w3.org/2000/svg" d="m301 61c0-32.894531-26.585938-61-60-61-33.421875 0-60 28.113281-60 61 0 33.085938 26.914062 60 60 60s60-26.914062 60-60zm-60 30c-16.542969 0-30-13.457031-30-30 0-16.804688 13.738281-31 30-31s30 14.195312 30 31c0 16.542969-13.457031 30-30 30zm0 0" fill="#0080f6" data-original="#000000" style="" class=""/></g></svg>
